<svg width="937" height="764" viewBox="0 0 937 764" fill="none" xmlns="http://www.w3.org/2000/svg">
<rect x="0.113342" y="0.103676" width="936.832" height="763.793" rx="164.944" fill="#F5F5F5"/>
<g filter="url(#filter0_d_303_3)">
<rect x="107" y="192" width="724.391" height="113.383" rx="20.9968" fill="white"/>
<rect width="50.3924" height="50.3924" transform="translate(138.495 223.495)" fill="white"/>
<path fill-rule="evenodd" clip-rule="evenodd" d="M186.872 249.24C186.872 247.528 186.718 245.881 186.433 244.301H163.692V253.641H176.687C176.127 256.659 174.426 259.217 171.868 260.929V266.987H179.672C184.238 262.784 186.872 256.593 186.872 249.24Z" fill="#4285F4"/>
<path fill-rule="evenodd" clip-rule="evenodd" d="M163.691 272.837C170.211 272.837 175.677 270.675 179.672 266.987L171.868 260.928C169.706 262.377 166.94 263.233 163.691 263.233C157.402 263.233 152.079 258.986 150.18 253.278H142.113V259.535C146.086 267.426 154.252 272.837 163.691 272.837Z" fill="#34A853"/>
<path fill-rule="evenodd" clip-rule="evenodd" d="M150.181 253.279C149.698 251.83 149.423 250.283 149.423 248.691C149.423 247.1 149.698 245.552 150.181 244.104V237.847H142.113C140.478 241.107 139.545 244.795 139.545 248.691C139.545 252.588 140.478 256.276 142.113 259.535L150.181 253.279Z" fill="#FBBC05"/>
<path fill-rule="evenodd" clip-rule="evenodd" d="M163.691 234.148C167.236 234.148 170.419 235.367 172.922 237.759L179.847 230.834C175.666 226.937 170.2 224.545 163.691 224.545C154.252 224.545 146.086 229.956 142.113 237.847L150.18 244.103C152.079 238.396 157.402 234.148 163.691 234.148Z" fill="#EA4335"/>
<path d="M246.198 252.776C245.898 255.961 244.722 258.449 242.672 260.24C240.621 262.017 237.894 262.905 234.49 262.905C232.112 262.905 230.013 262.345 228.195 261.224C226.391 260.089 224.996 258.483 224.012 256.405C223.028 254.328 222.515 251.915 222.474 249.167V246.379C222.474 243.563 222.973 241.081 223.971 238.935C224.969 236.789 226.398 235.135 228.257 233.973C230.13 232.811 232.289 232.23 234.736 232.23C238.031 232.23 240.683 233.126 242.692 234.916C244.702 236.707 245.87 239.236 246.198 242.503H241.031C240.785 240.357 240.156 238.812 239.145 237.869C238.147 236.912 236.677 236.434 234.736 236.434C232.481 236.434 230.745 237.261 229.528 238.915C228.325 240.555 227.71 242.968 227.683 246.153V248.798C227.683 252.024 228.257 254.485 229.405 256.18C230.567 257.875 232.262 258.722 234.49 258.722C236.527 258.722 238.058 258.264 239.083 257.349C240.108 256.433 240.758 254.908 241.031 252.776H246.198ZM249.438 251.197C249.438 249.024 249.869 247.069 250.73 245.333C251.591 243.583 252.801 242.243 254.359 241.314C255.918 240.371 257.708 239.899 259.732 239.899C262.725 239.899 265.152 240.863 267.011 242.79C268.883 244.718 269.895 247.274 270.045 250.459L270.066 251.628C270.066 253.815 269.642 255.77 268.795 257.492C267.961 259.214 266.758 260.547 265.186 261.491C263.627 262.434 261.823 262.905 259.773 262.905C256.642 262.905 254.134 261.866 252.247 259.789C250.375 257.697 249.438 254.915 249.438 251.443V251.197ZM254.421 251.628C254.421 253.911 254.892 255.701 255.836 257C256.779 258.285 258.091 258.927 259.773 258.927C261.454 258.927 262.759 258.271 263.689 256.959C264.632 255.647 265.104 253.726 265.104 251.197C265.104 248.955 264.618 247.178 263.648 245.866C262.691 244.554 261.386 243.897 259.732 243.897C258.105 243.897 256.813 244.547 255.856 245.845C254.899 247.13 254.421 249.058 254.421 251.628ZM278.903 240.309L279.047 242.872C280.687 240.89 282.84 239.899 285.506 239.899C290.126 239.899 292.478 242.544 292.56 247.834V262.495H287.577V248.121C287.577 246.713 287.269 245.675 286.654 245.005C286.053 244.321 285.062 243.979 283.681 243.979C281.672 243.979 280.175 244.889 279.19 246.707V262.495H274.208V240.309H278.903ZM303.899 234.916V240.309H307.815V244H303.899V256.385C303.899 257.232 304.063 257.848 304.391 258.23C304.733 258.599 305.334 258.784 306.195 258.784C306.769 258.784 307.35 258.716 307.938 258.579V262.434C306.804 262.748 305.71 262.905 304.657 262.905C300.83 262.905 298.916 260.793 298.916 256.569V244H295.266V240.309H298.916V234.916H303.899ZM316.94 262.495H311.957V240.309H316.94V262.495ZM311.649 234.547C311.649 233.782 311.889 233.146 312.367 232.64C312.859 232.135 313.556 231.882 314.459 231.882C315.361 231.882 316.058 232.135 316.55 232.64C317.042 233.146 317.288 233.782 317.288 234.547C317.288 235.299 317.042 235.928 316.55 236.434C316.058 236.926 315.361 237.172 314.459 237.172C313.556 237.172 312.859 236.926 312.367 236.434C311.889 235.928 311.649 235.299 311.649 234.547ZM327.008 240.309L327.151 242.872C328.791 240.89 330.944 239.899 333.61 239.899C338.23 239.899 340.582 242.544 340.664 247.834V262.495H335.681V248.121C335.681 246.713 335.373 245.675 334.758 245.005C334.157 244.321 333.166 243.979 331.785 243.979C329.776 243.979 328.279 244.889 327.295 246.707V262.495H322.312V240.309H327.008ZM359.2 260.322C357.737 262.044 355.659 262.905 352.966 262.905C350.561 262.905 348.736 262.201 347.492 260.793C346.261 259.385 345.646 257.349 345.646 254.683V240.309H350.629V254.621C350.629 257.437 351.798 258.845 354.135 258.845C356.555 258.845 358.188 257.977 359.036 256.241V240.309H364.019V262.495H359.323L359.2 260.322ZM378.864 262.905C375.706 262.905 373.143 261.914 371.175 259.932C369.22 257.936 368.243 255.284 368.243 251.976V251.361C368.243 249.147 368.666 247.171 369.514 245.435C370.375 243.686 371.578 242.325 373.123 241.355C374.667 240.384 376.39 239.899 378.29 239.899C381.311 239.899 383.642 240.863 385.282 242.79C386.936 244.718 387.763 247.445 387.763 250.972V252.981H373.266C373.417 254.813 374.025 256.262 375.091 257.328C376.171 258.394 377.524 258.927 379.151 258.927C381.434 258.927 383.293 258.005 384.728 256.159L387.414 258.722C386.526 260.048 385.337 261.08 383.847 261.819C382.37 262.543 380.709 262.905 378.864 262.905ZM378.269 243.897C376.902 243.897 375.795 244.376 374.948 245.333C374.114 246.29 373.581 247.622 373.348 249.331H382.842V248.962C382.733 247.294 382.288 246.037 381.509 245.189C380.73 244.328 379.65 243.897 378.269 243.897ZM421.596 255.626L425.123 240.309H429.982L423.933 262.495H419.832L415.075 247.26L410.4 262.495H406.299L400.23 240.309H405.089L408.678 255.462L413.23 240.309H416.982L421.596 255.626ZM438.615 262.495H433.632V240.309H438.615V262.495ZM433.325 234.547C433.325 233.782 433.564 233.146 434.042 232.64C434.534 232.135 435.231 231.882 436.134 231.882C437.036 231.882 437.733 232.135 438.225 232.64C438.717 233.146 438.963 233.782 438.963 234.547C438.963 235.299 438.717 235.928 438.225 236.434C437.733 236.926 437.036 237.172 436.134 237.172C435.231 237.172 434.534 236.926 434.042 236.434C433.564 235.928 433.325 235.299 433.325 234.547ZM450.302 234.916V240.309H454.219V244H450.302V256.385C450.302 257.232 450.466 257.848 450.795 258.23C451.136 258.599 451.738 258.784 452.599 258.784C453.173 258.784 453.754 258.716 454.342 258.579V262.434C453.207 262.748 452.114 262.905 451.061 262.905C447.234 262.905 445.32 260.793 445.32 256.569V244H441.67V240.309H445.32V234.916H450.302ZM462.954 242.729C464.581 240.842 466.638 239.899 469.126 239.899C473.856 239.899 476.255 242.599 476.323 247.998V262.495H471.34V248.183C471.34 246.652 471.005 245.572 470.336 244.943C469.679 244.301 468.709 243.979 467.424 243.979C465.428 243.979 463.938 244.868 462.954 246.645V262.495H457.971V231H462.954V242.729ZM515.2 258.62C514.12 260.028 512.623 261.094 510.709 261.819C508.796 262.543 506.622 262.905 504.189 262.905C501.687 262.905 499.473 262.338 497.545 261.203C495.618 260.069 494.128 258.449 493.075 256.344C492.036 254.225 491.496 251.758 491.455 248.942V246.604C491.455 242.093 492.535 238.573 494.695 236.044C496.855 233.502 499.869 232.23 503.738 232.23C507.06 232.23 509.698 233.05 511.653 234.691C513.607 236.331 514.783 238.696 515.179 241.785H510.094C509.52 238.19 507.435 236.393 503.84 236.393C501.516 236.393 499.746 237.233 498.53 238.915C497.327 240.583 496.705 243.036 496.664 246.276V248.573C496.664 251.799 497.34 254.307 498.694 256.098C500.061 257.875 501.954 258.763 504.373 258.763C507.025 258.763 508.912 258.162 510.033 256.959V251.115H503.881V247.178H515.2V258.62ZM519.485 251.197C519.485 249.024 519.916 247.069 520.777 245.333C521.638 243.583 522.848 242.243 524.407 241.314C525.965 240.371 527.756 239.899 529.779 239.899C532.772 239.899 535.199 240.863 537.058 242.79C538.931 244.718 539.942 247.274 540.093 250.459L540.113 251.628C540.113 253.815 539.689 255.77 538.842 257.492C538.008 259.214 536.805 260.547 535.233 261.491C533.675 262.434 531.87 262.905 529.82 262.905C526.689 262.905 524.181 261.866 522.295 259.789C520.422 257.697 519.485 254.915 519.485 251.443V251.197ZM524.468 251.628C524.468 253.911 524.94 255.701 525.883 257C526.826 258.285 528.138 258.927 529.82 258.927C531.501 258.927 532.807 258.271 533.736 256.959C534.679 255.647 535.151 253.726 535.151 251.197C535.151 248.955 534.666 247.178 533.695 245.866C532.738 244.554 531.433 243.897 529.779 243.897C528.152 243.897 526.86 244.547 525.903 245.845C524.946 247.13 524.468 249.058 524.468 251.628ZM543.394 251.197C543.394 249.024 543.824 247.069 544.686 245.333C545.547 243.583 546.757 242.243 548.315 241.314C549.873 240.371 551.664 239.899 553.687 239.899C556.681 239.899 559.107 240.863 560.966 242.79C562.839 244.718 563.851 247.274 564.001 250.459L564.022 251.628C564.022 253.815 563.598 255.77 562.75 257.492C561.916 259.214 560.714 260.547 559.142 261.491C557.583 262.434 555.779 262.905 553.728 262.905C550.598 262.905 548.089 261.866 546.203 259.789C544.33 257.697 543.394 254.915 543.394 251.443V251.197ZM548.377 251.628C548.377 253.911 548.848 255.701 549.791 257C550.735 258.285 552.047 258.927 553.728 258.927C555.41 258.927 556.715 258.271 557.645 256.959C558.588 255.647 559.06 253.726 559.06 251.197C559.06 248.955 558.574 247.178 557.604 245.866C556.647 244.554 555.341 243.897 553.687 243.897C552.061 243.897 550.769 244.547 549.812 245.845C548.855 247.13 548.377 249.058 548.377 251.628ZM567.364 251.238C567.364 247.793 568.17 245.046 569.783 242.995C571.41 240.931 573.563 239.899 576.242 239.899C578.771 239.899 580.76 240.781 582.209 242.544L582.435 240.309H586.925V261.819C586.925 264.73 586.016 267.027 584.198 268.708C582.394 270.39 579.954 271.23 576.878 271.23C575.251 271.23 573.659 270.889 572.101 270.205C570.556 269.535 569.38 268.653 568.574 267.56L570.932 264.566C572.463 266.384 574.349 267.293 576.591 267.293C578.245 267.293 579.551 266.842 580.507 265.94C581.464 265.051 581.943 263.739 581.943 262.003V260.506C580.507 262.106 578.594 262.905 576.201 262.905C573.604 262.905 571.479 261.873 569.824 259.809C568.184 257.745 567.364 254.888 567.364 251.238ZM572.326 251.669C572.326 253.897 572.777 255.653 573.679 256.938C574.595 258.21 575.86 258.845 577.473 258.845C579.482 258.845 580.972 257.984 581.943 256.262V246.502C581 244.82 579.523 243.979 577.514 243.979C575.873 243.979 574.595 244.629 573.679 245.927C572.777 247.226 572.326 249.14 572.326 251.669ZM597.362 262.495H592.38V231H597.362V262.495ZM612.577 262.905C609.419 262.905 606.856 261.914 604.888 259.932C602.933 257.936 601.955 255.284 601.955 251.976V251.361C601.955 249.147 602.379 247.171 603.227 245.435C604.088 243.686 605.291 242.325 606.835 241.355C608.38 240.384 610.103 239.899 612.003 239.899C615.024 239.899 617.354 240.863 618.995 242.79C620.649 244.718 621.476 247.445 621.476 250.972V252.981H606.979C607.129 254.813 607.738 256.262 608.804 257.328C609.884 258.394 611.237 258.927 612.864 258.927C615.147 258.927 617.006 258.005 618.441 256.159L621.127 258.722C620.239 260.048 619.049 261.08 617.559 261.819C616.083 262.543 614.422 262.905 612.577 262.905ZM611.982 243.897C610.615 243.897 609.508 244.376 608.66 245.333C607.827 246.29 607.293 247.622 607.061 249.331H616.555V248.962C616.445 247.294 616.001 246.037 615.222 245.189C614.443 244.328 613.363 243.897 611.982 243.897Z" fill="black" fill-opacity="0.54"/>
</g>
<g filter="url(#filter1_d_303_3)">
<rect x="106.334" y="509.137" width="724.391" height="113.383" rx="20.9968" fill="black"/>
<rect width="50.3924" height="50.3924" transform="translate(137.829 540.632)" fill="black"/>
<path d="M182.512 579.316C181.781 581.004 180.917 582.557 179.915 583.985C178.55 585.931 177.432 587.279 176.571 588.027C175.235 589.255 173.804 589.884 172.272 589.92C171.172 589.92 169.846 589.607 168.301 588.972C166.752 588.34 165.328 588.027 164.027 588.027C162.661 588.027 161.197 588.34 159.631 588.972C158.062 589.607 156.799 589.938 155.833 589.97C154.363 590.033 152.899 589.386 151.437 588.027C150.504 587.213 149.337 585.818 147.939 583.841C146.439 581.731 145.206 579.284 144.24 576.493C143.205 573.48 142.686 570.561 142.686 567.736C142.686 564.5 143.385 561.708 144.786 559.369C145.887 557.49 147.352 556.008 149.185 554.92C151.018 553.832 152.998 553.278 155.131 553.242C156.298 553.242 157.828 553.603 159.73 554.313C161.627 555.024 162.844 555.385 163.378 555.385C163.778 555.385 165.13 554.963 167.424 554.122C169.592 553.341 171.422 553.018 172.922 553.146C176.985 553.473 180.037 555.075 182.067 557.961C178.434 560.162 176.636 563.246 176.672 567.202C176.705 570.284 177.823 572.848 180.019 574.884C181.015 575.829 182.127 576.559 183.364 577.078C183.096 577.856 182.813 578.601 182.512 579.316ZM173.193 542.648C173.193 545.063 172.311 547.318 170.552 549.405C168.43 551.887 165.862 553.321 163.078 553.094C163.043 552.805 163.022 552.5 163.022 552.179C163.022 549.861 164.032 547.379 165.824 545.35C166.719 544.323 167.857 543.469 169.237 542.788C170.615 542.117 171.917 541.745 173.142 541.682C173.178 542.005 173.193 542.328 173.193 542.648V542.648Z" fill="white"/>
<path d="M234.931 581.124C241.739 581.124 246.373 577.536 247.501 571.425H242.928C242.005 574.993 239.073 577.105 234.952 577.105C229.518 577.105 226.073 572.738 226.073 565.828C226.073 558.979 229.559 554.571 234.931 554.571C238.95 554.571 242.108 557.052 242.928 560.845H247.48C246.701 554.673 241.636 550.552 234.931 550.552C226.668 550.552 221.378 556.457 221.378 565.828C221.378 575.26 226.627 581.124 234.931 581.124ZM260.378 581.042C266.549 581.042 270.609 576.798 270.609 569.847C270.609 562.916 266.529 558.672 260.378 558.672C254.226 558.672 250.146 562.916 250.146 569.847C250.146 576.798 254.206 581.042 260.378 581.042ZM260.378 577.392C256.912 577.392 254.657 574.645 254.657 569.847C254.657 565.069 256.912 562.321 260.378 562.321C263.843 562.321 266.098 565.069 266.098 569.847C266.098 574.645 263.863 577.392 260.378 577.392ZM274.034 580.632H278.463V568.063C278.463 564.72 280.472 562.506 283.589 562.506C286.665 562.506 288.182 564.29 288.182 567.53V580.632H292.631V566.668C292.631 561.727 289.904 558.692 285.147 558.692C281.825 558.692 279.529 560.209 278.36 562.67H278.258V559.061H274.034V580.632ZM298.209 553.955V559.061H295.072V562.567H298.209V574.952C298.209 579.115 299.911 580.776 304.278 580.776C305.262 580.776 306.247 580.694 306.739 580.571V577.064C306.452 577.126 305.734 577.167 305.283 577.167C303.478 577.167 302.658 576.326 302.658 574.46V562.567H306.759V559.061H302.658V553.955H298.209ZM312.767 555.575C314.182 555.575 315.31 554.427 315.31 553.033C315.31 551.618 314.182 550.49 312.767 550.49C311.352 550.49 310.204 551.618 310.204 553.033C310.204 554.427 311.352 555.575 312.767 555.575ZM310.553 580.632H314.982V559.061H310.553V580.632ZM319.513 580.632H323.942V568.063C323.942 564.72 325.952 562.506 329.068 562.506C332.144 562.506 333.661 564.29 333.661 567.53V580.632H338.111V566.668C338.111 561.727 335.384 558.692 330.627 558.692C327.305 558.692 325.008 560.209 323.84 562.67H323.737V559.061H319.513V580.632ZM360.892 559.061H356.463V571.631C356.463 574.993 354.535 577.208 351.337 577.208C348.281 577.208 346.723 575.444 346.723 572.164V559.061H342.294V573.025C342.294 577.966 345.165 581.022 349.86 581.022C353.161 581.022 355.355 579.566 356.545 576.982H356.647V580.632H360.892V559.061ZM379.572 574.296C378.977 576.183 377.111 577.454 374.589 577.454C371.042 577.454 368.786 574.973 368.786 571.22V570.954H384.021V569.436C384.021 562.895 380.289 558.672 374.302 558.672C368.212 558.672 364.316 563.183 364.316 569.949C364.316 576.757 368.15 581.042 374.486 581.042C379.428 581.042 383.16 578.233 383.775 574.296H379.572ZM374.302 562.239C377.398 562.239 379.49 564.556 379.592 567.858H368.807C369.032 564.597 371.206 562.239 374.302 562.239ZM424.456 559.061H420.068L416.131 576.039H416.029L411.518 559.061H407.253L402.762 576.039H402.68L398.743 559.061H394.314L400.24 580.632H404.813L409.303 564.474H409.406L413.937 580.632H418.551L424.456 559.061ZM429.521 555.575C430.936 555.575 432.064 554.427 432.064 553.033C432.064 551.618 430.936 550.49 429.521 550.49C428.106 550.49 426.958 551.618 426.958 553.033C426.958 554.427 428.106 555.575 429.521 555.575ZM427.307 580.632H431.736V559.061H427.307V580.632ZM437.559 553.955V559.061H434.422V562.567H437.559V574.952C437.559 579.115 439.261 580.776 443.628 580.776C444.613 580.776 445.597 580.694 446.089 580.571V577.064C445.802 577.126 445.084 577.167 444.633 577.167C442.829 577.167 442.008 576.326 442.008 574.46V562.567H446.109V559.061H442.008V553.955H437.559ZM449.923 580.632H454.352V568.165C454.352 564.761 456.362 562.506 459.642 562.506C462.759 562.506 464.359 564.413 464.359 567.591V580.632H468.808V566.73C468.808 561.85 465.978 558.692 461.242 558.692C457.961 558.692 455.603 560.148 454.414 562.67H454.311V551.044H449.923V580.632ZM501.431 580.632H506.291L495.608 551.044H490.646L479.963 580.632H484.74L487.447 572.635H498.724L501.431 580.632ZM493.024 555.965H493.147L497.556 568.944H488.616L493.024 555.965ZM520.254 558.713C517.138 558.713 514.657 560.291 513.385 562.772H513.303V559.061H509.018V587.768H513.447V577.085H513.549C514.78 579.484 517.24 581.001 520.336 581.001C525.75 581.001 529.338 576.675 529.338 569.847C529.338 563.019 525.729 558.713 520.254 558.713ZM519.086 577.249C515.682 577.249 513.426 574.337 513.426 569.847C513.426 565.397 515.702 562.444 519.086 562.444C522.592 562.444 524.786 565.336 524.786 569.847C524.786 574.378 522.592 577.249 519.086 577.249ZM543.999 558.713C540.882 558.713 538.401 560.291 537.13 562.772H537.048V559.061H532.762V587.768H537.191V577.085H537.294C538.524 579.484 540.985 581.001 544.081 581.001C549.494 581.001 553.083 576.675 553.083 569.847C553.083 563.019 549.474 558.713 543.999 558.713ZM542.83 577.249C539.426 577.249 537.171 574.337 537.171 569.847C537.171 565.397 539.447 562.444 542.83 562.444C546.336 562.444 548.53 565.336 548.53 569.847C548.53 574.378 546.336 577.249 542.83 577.249ZM556.671 580.632H561.1V551.044H556.671V580.632ZM579.944 574.296C579.349 576.183 577.483 577.454 574.961 577.454C571.414 577.454 569.158 574.973 569.158 571.22V570.954H584.393V569.436C584.393 562.895 580.661 558.672 574.674 558.672C568.584 558.672 564.688 563.183 564.688 569.949C564.688 576.757 568.523 581.042 574.859 581.042C579.8 581.042 583.532 578.233 584.147 574.296H579.944ZM574.674 562.239C577.77 562.239 579.862 564.556 579.964 567.858H569.179C569.404 564.597 571.578 562.239 574.674 562.239Z" fill="white"/>
</g>
<path d="M555.76 113.222C555.551 113.222 555.369 112.974 555.212 112.479C555.056 111.983 554.912 111.279 554.782 110.366L554.038 105.67L552.63 105.983C551.534 106.218 550.621 106.401 549.891 106.531C549.161 106.636 548.456 106.688 547.778 106.688C547.439 106.688 547.217 106.609 547.113 106.453C547.009 106.27 546.956 106.049 546.956 105.788C546.956 105.449 546.995 105.227 547.074 105.123C547.178 105.018 547.413 104.914 547.778 104.81C548.508 104.627 549.46 104.418 550.634 104.184C551.808 103.923 552.838 103.714 553.725 103.558C553.465 102.332 553.256 101.21 553.099 100.193C552.943 99.1492 552.865 98.4058 552.865 97.9624C552.865 97.7798 552.878 97.6755 552.904 97.6494C553.191 97.3885 553.53 97.2581 553.921 97.2581C554.234 97.2581 554.521 97.3364 554.782 97.4929L555.995 103.245C558.551 103.323 560.507 103.453 561.864 103.636C563.22 103.818 563.898 104.092 563.898 104.457C563.898 104.771 563.755 105.097 563.468 105.436C563.207 105.749 562.998 105.905 562.842 105.905L556.543 105.436L556.973 112.518C556.895 112.987 556.49 113.222 555.76 113.222ZM577.405 111.383C577.77 111.096 578.123 110.953 578.462 110.953C578.775 110.953 579.075 111.044 579.362 111.226C579.675 111.409 579.988 111.644 580.301 111.931C580.614 112.192 580.861 112.387 581.044 112.518C581.644 112.987 582.466 113.352 583.509 113.613C584.552 113.874 585.661 114.005 586.835 114.005C588.165 114.005 589.352 113.757 590.395 113.261C591.465 112.739 592 112.048 592 111.187C592 110.405 591.713 109.792 591.139 109.348C590.565 108.879 589.874 108.54 589.065 108.331C588.256 108.122 587.187 107.927 585.857 107.744C584.057 107.535 582.622 107.275 581.553 106.962C580.509 106.649 579.675 106.14 579.049 105.436C578.423 104.705 578.11 103.688 578.11 102.384C578.11 100.975 578.775 99.9318 580.105 99.2536C581.435 98.5493 582.961 98.1972 584.683 98.1972C586.248 98.1972 587.578 98.5363 588.674 99.2145C589.795 99.8666 590.369 100.806 590.395 102.032C590.448 102.736 590.343 103.297 590.082 103.714C589.822 104.105 589.509 104.301 589.143 104.301C588.935 104.301 588.752 104.223 588.596 104.066C588.465 103.91 588.4 103.701 588.4 103.44C588.4 103.023 588.543 102.566 588.83 102.071C588.7 101.445 588.27 100.975 587.539 100.662C586.835 100.349 585.987 100.193 584.996 100.193C583.535 100.193 582.374 100.467 581.514 101.014C580.653 101.536 580.222 102.162 580.222 102.892C580.222 103.675 580.535 104.275 581.161 104.692C581.787 105.11 582.544 105.41 583.431 105.592C584.344 105.749 585.635 105.905 587.304 106.062C588.687 106.244 589.809 106.466 590.669 106.727C591.556 106.988 592.3 107.496 592.9 108.253C593.5 108.983 593.799 110.04 593.799 111.422C593.799 112.857 593.134 113.991 591.804 114.826C590.474 115.635 588.883 116.039 587.03 116.039C584.657 116.039 582.531 115.635 580.653 114.826C578.801 114.018 577.718 112.87 577.405 111.383ZM605.216 116.039C603.677 116.039 602.282 115.7 601.03 115.022C599.804 114.318 598.839 113.352 598.134 112.126C597.456 110.874 597.117 109.453 597.117 107.862C597.117 105.253 598.069 103.31 599.973 102.032C601.904 100.753 604.264 100.114 607.055 100.114C608.333 100.114 609.52 100.427 610.616 101.053C611.738 101.679 612.637 102.579 613.316 103.753C613.994 104.927 614.333 106.283 614.333 107.822C614.333 109.492 613.903 110.953 613.042 112.205C612.181 113.431 611.046 114.383 609.638 115.061C608.255 115.713 606.781 116.039 605.216 116.039ZM604.786 113.809C607.212 113.809 609.051 113.261 610.303 112.166C611.555 111.07 612.181 109.466 612.181 107.353C612.181 105.918 611.685 104.679 610.694 103.636C609.729 102.592 608.373 102.071 606.625 102.071C605.451 102.071 604.264 102.292 603.064 102.736C601.864 103.179 600.873 103.845 600.091 104.731C599.308 105.618 598.917 106.688 598.917 107.94C598.917 108.983 599.178 109.961 599.699 110.874C600.221 111.761 600.925 112.479 601.812 113.026C602.725 113.548 603.716 113.809 604.786 113.809ZM627.07 116.039C624.018 116.039 621.644 115.348 619.949 113.965C618.28 112.557 617.445 110.392 617.445 107.47C617.445 105.983 617.81 104.575 618.54 103.245C619.297 101.888 620.301 100.806 621.553 99.997C622.831 99.1623 624.201 98.7449 625.661 98.7449C627.148 98.7449 628.413 99.071 629.457 99.7231C630.5 100.349 631.022 101.262 631.022 102.462C631.022 103.297 630.865 103.897 630.552 104.262C630.265 104.601 629.939 104.771 629.574 104.771C629.574 103.518 629.235 102.501 628.557 101.719C627.879 100.936 626.914 100.545 625.661 100.545C624.409 100.545 623.327 100.884 622.414 101.562C621.501 102.214 620.797 103.088 620.301 104.184C619.832 105.253 619.597 106.375 619.597 107.549C619.597 110.027 620.432 111.709 622.101 112.596C623.796 113.483 626.027 113.926 628.792 113.926C629.731 113.926 630.957 113.874 632.47 113.77C632.522 113.77 632.639 113.822 632.822 113.926C633.004 114.031 633.148 114.096 633.252 114.122V114.357C633.252 115.113 632.587 115.583 631.257 115.765C629.926 115.948 628.531 116.039 627.07 116.039ZM637.452 116.039C636.852 116.039 636.369 115.165 636.004 113.418C635.639 111.644 635.404 110.118 635.3 108.84C635.196 107.562 635.052 105.54 634.87 102.775C634.843 102.332 634.83 101.758 634.83 101.053C634.83 100.167 634.896 99.5536 635.026 99.2145C635.183 98.8754 635.43 98.7058 635.769 98.7058C636.056 98.7058 636.278 98.771 636.435 98.9014C636.617 99.0058 636.774 99.1884 636.904 99.4492L636.865 101.014C636.865 102.684 636.943 104.262 637.1 105.749C637.282 107.236 637.556 109.231 637.921 111.735C638.13 112.831 638.274 113.731 638.352 114.435C638.404 114.8 638.339 115.165 638.156 115.53C637.974 115.87 637.739 116.039 637.452 116.039ZM636.474 94.5192C635.9 94.5192 635.469 94.2975 635.183 93.854C634.922 93.4106 634.791 92.8628 634.791 92.2107C634.791 91.9238 634.804 91.7151 634.83 91.5847C634.804 91.1673 635.039 90.9586 635.535 90.9586C635.9 90.9586 636.265 91.0499 636.63 91.2325C637.022 91.389 637.139 91.5064 636.982 91.5847C637.243 92.2629 637.374 92.7976 637.374 93.1889C637.374 93.528 637.295 93.8019 637.139 94.0106C636.982 94.1931 636.761 94.3627 636.474 94.5192ZM651.917 116C649.204 116 646.843 115.53 644.835 114.591C642.852 113.626 641.861 111.944 641.861 109.544C641.861 108.683 642.122 107.849 642.644 107.04C643.165 106.231 643.935 105.579 644.952 105.084C645.969 104.562 647.208 104.301 648.669 104.301C649.791 104.301 650.743 104.353 651.525 104.457C652.308 104.562 653.208 104.849 654.225 105.318C655.243 105.788 656.299 106.531 657.395 107.549C656.977 105.749 656.351 104.171 655.516 102.814C654.682 101.458 653.743 100.414 652.699 99.684C651.682 98.9275 650.678 98.5493 649.686 98.5493C649.217 98.5493 648.774 98.6406 648.356 98.8232C647.965 98.9797 647.482 99.2145 646.908 99.5275C646.256 99.9448 645.774 100.154 645.461 100.154C645.33 100.154 645.213 100.114 645.109 100.036C645.03 99.9318 644.991 99.8144 644.991 99.684C644.991 98.6406 645.448 97.832 646.361 97.2581C647.3 96.6842 648.434 96.4234 649.765 96.4756C651.591 96.5799 653.26 97.3624 654.773 98.8232C656.286 100.258 657.473 102.045 658.334 104.184C659.22 106.323 659.664 108.422 659.664 110.483C659.664 110.822 659.638 111.305 659.586 111.931L658.334 111.853C657.342 109.844 656.064 108.422 654.499 107.588C652.96 106.727 651.408 106.296 649.843 106.296C647.834 106.296 646.4 106.596 645.539 107.196C644.678 107.796 644.248 108.67 644.248 109.818C644.248 111.018 644.848 111.983 646.048 112.713C647.248 113.444 648.787 113.809 650.665 113.809C651.708 113.809 652.543 113.757 653.169 113.652C653.795 113.522 654.447 113.352 655.125 113.144C655.673 112.961 656.155 112.831 656.573 112.752C656.99 112.674 657.525 112.635 658.177 112.635C658.907 112.635 659.364 112.687 659.547 112.792C659.755 112.896 659.86 113.131 659.86 113.496C659.86 113.757 659.325 114.083 658.255 114.474C657.186 114.865 655.986 115.217 654.656 115.53C653.325 115.843 652.412 116 651.917 116ZM665.143 115.726C664.569 112.883 664.126 109.518 663.813 105.631C663.526 101.719 663.383 97.9363 663.383 94.2844C663.383 92.4585 663.422 90.8413 663.5 89.4327C663.5 89.0936 663.761 88.924 664.282 88.924C664.7 88.924 664.961 89.0284 665.065 89.237C665.195 89.4457 665.261 89.7718 665.261 90.2152C665.261 94.4409 665.339 98.0537 665.495 101.053C665.652 104.027 665.861 107.236 666.121 110.679C666.278 112.896 666.382 114.396 666.434 115.178C666.461 115.596 666.239 115.804 665.769 115.804C665.613 115.804 665.404 115.778 665.143 115.726ZM688.031 116.078C685.423 116.078 683.453 115.635 682.123 114.748C680.793 113.835 680.128 112.192 680.128 109.818C680.649 96.7755 681.484 90.5543 682.632 91.1543C683.206 91.1804 683.493 92.0672 683.493 93.8149C683.493 94.8844 683.31 97.1407 682.945 100.584C682.475 104.549 682.241 107.457 682.241 109.309L682.28 110.444C682.28 111.018 682.449 111.592 682.788 112.166C683.154 112.739 683.61 113.052 684.158 113.105L691.827 113.77C692.114 113.796 692.257 114.07 692.257 114.591C692.257 115.061 692.14 115.387 691.905 115.57C691.696 115.752 691.318 115.896 690.77 116L688.031 116.078ZM701.926 116.039C700.387 116.039 698.992 115.7 697.739 115.022C696.514 114.318 695.548 113.352 694.844 112.126C694.166 110.874 693.827 109.453 693.827 107.862C693.827 105.253 694.779 103.31 696.683 102.032C698.613 100.753 700.974 100.114 703.765 100.114C705.043 100.114 706.23 100.427 707.326 101.053C708.447 101.679 709.347 102.579 710.025 103.753C710.704 104.927 711.043 106.283 711.043 107.822C711.043 109.492 710.612 110.953 709.752 112.205C708.891 113.431 707.756 114.383 706.347 115.061C704.965 115.713 703.491 116.039 701.926 116.039ZM701.496 113.809C703.922 113.809 705.761 113.261 707.013 112.166C708.265 111.07 708.891 109.466 708.891 107.353C708.891 105.918 708.395 104.679 707.404 103.636C706.439 102.592 705.082 102.071 703.335 102.071C702.161 102.071 700.974 102.292 699.774 102.736C698.574 103.179 697.583 103.845 696.8 104.731C696.018 105.618 695.627 106.688 695.627 107.94C695.627 108.983 695.887 109.961 696.409 110.874C696.931 111.761 697.635 112.479 698.522 113.026C699.435 113.548 700.426 113.809 701.496 113.809ZM720.728 135.094C718.537 135.094 716.698 134.468 715.211 133.216C713.75 131.99 712.876 129.916 712.589 126.995C712.563 126.551 712.629 126.212 712.785 125.977C712.968 125.743 713.202 125.625 713.489 125.625C713.802 125.625 714.076 125.743 714.311 125.977C714.546 126.238 714.65 126.577 714.624 126.995C714.624 128.716 715.211 130.073 716.385 131.064C717.585 132.081 719.111 132.59 720.963 132.59C722.032 132.59 722.971 132.199 723.78 131.416C724.615 130.634 725.254 129.538 725.697 128.129C726.14 126.747 726.362 125.156 726.362 123.356C726.362 120.2 726.401 117.135 726.48 114.161L726.519 112.166C725.501 113.235 724.575 114.018 723.741 114.513C722.932 115.009 721.954 115.257 720.806 115.257C718.798 115.257 717.311 114.722 716.346 113.652C715.407 112.557 714.937 110.887 714.937 108.644C714.937 107.366 715.276 106.036 715.954 104.653C716.659 103.245 717.611 102.071 718.811 101.132C720.037 100.193 721.419 99.7231 722.958 99.7231C723.48 99.7231 723.962 99.7753 724.406 99.8796C726.075 100.245 727.197 101.797 727.771 104.536C728.345 107.275 728.632 110.822 728.632 115.178C728.632 116.378 728.606 117.969 728.553 119.952L728.514 123.669C728.514 125.156 728.279 126.773 727.81 128.521C727.34 130.294 726.519 131.833 725.345 133.138C724.171 134.442 722.632 135.094 720.728 135.094ZM720.219 112.674C722.15 112.674 723.61 112.218 724.601 111.305C725.593 110.366 726.088 108.996 726.088 107.196C726.088 106.962 726.062 106.557 726.01 105.983C725.88 104.784 725.567 103.845 725.071 103.166C724.601 102.462 723.858 102.11 722.841 102.11C721.771 102.11 720.793 102.488 719.906 103.245C719.019 104.001 718.328 104.94 717.832 106.062C717.337 107.157 717.089 108.188 717.089 109.153C717.089 110.118 717.376 110.953 717.95 111.657C718.524 112.335 719.28 112.674 720.219 112.674ZM734.391 116.039C733.791 116.039 733.308 115.165 732.943 113.418C732.578 111.644 732.343 110.118 732.239 108.84C732.135 107.562 731.991 105.54 731.809 102.775C731.782 102.332 731.769 101.758 731.769 101.053C731.769 100.167 731.835 99.5536 731.965 99.2145C732.122 98.8754 732.369 98.7058 732.708 98.7058C732.995 98.7058 733.217 98.771 733.374 98.9014C733.556 99.0058 733.713 99.1884 733.843 99.4492L733.804 101.014C733.804 102.684 733.882 104.262 734.039 105.749C734.221 107.236 734.495 109.231 734.86 111.735C735.069 112.831 735.213 113.731 735.291 114.435C735.343 114.8 735.278 115.165 735.095 115.53C734.913 115.87 734.678 116.039 734.391 116.039ZM733.413 94.5192C732.839 94.5192 732.408 94.2975 732.122 93.854C731.861 93.4106 731.73 92.8628 731.73 92.2107C731.73 91.9238 731.743 91.7151 731.769 91.5847C731.743 91.1673 731.978 90.9586 732.474 90.9586C732.839 90.9586 733.204 91.0499 733.569 91.2325C733.961 91.389 734.078 91.5064 733.921 91.5847C734.182 92.2629 734.313 92.7976 734.313 93.1889C734.313 93.528 734.234 93.8019 734.078 94.0106C733.921 94.1931 733.7 94.3627 733.413 94.5192ZM742.517 116.157C742.152 116.261 741.943 116.313 741.891 116.313C741.682 116.313 741.461 116.209 741.226 116C740.365 114.722 739.739 112.492 739.348 109.309C738.983 106.127 738.8 103.388 738.8 101.093C738.8 100.727 739.061 100.545 739.583 100.545C740.365 100.545 740.756 100.975 740.756 101.836C740.756 102.071 740.743 102.266 740.717 102.423C740.952 101.875 741.395 101.314 742.048 100.74C742.7 100.167 743.456 99.684 744.317 99.2927C745.178 98.9014 746.052 98.7058 746.938 98.7058C749.73 98.7058 751.764 99.9448 753.042 102.423C754.32 104.875 754.96 107.927 754.96 111.579C754.96 112.831 754.829 113.835 754.568 114.591C754.307 115.322 753.955 115.687 753.512 115.687C753.042 115.687 752.808 115.544 752.808 115.257C752.99 113.874 753.081 112.518 753.081 111.187C753.081 107.822 752.495 105.279 751.321 103.558C750.147 101.81 748.595 100.936 746.665 100.936C745.726 100.936 744.813 101.171 743.926 101.64C743.065 102.11 742.361 102.762 741.813 103.597C741.291 104.431 741.03 105.384 741.03 106.453C741.03 107.653 741.096 108.696 741.226 109.583C741.356 110.47 741.565 111.54 741.852 112.792C742.165 114.018 742.387 115.139 742.517 116.157Z" fill="black"/>
<path d="M487.561 113.109L487.941 114.059L487.561 113.109ZM456.86 142.656C456.322 142.83 455.746 142.534 455.572 141.996L452.751 133.229C452.577 132.691 452.873 132.114 453.411 131.941C453.949 131.768 454.526 132.063 454.699 132.601L457.207 140.395L465 137.886C465.538 137.713 466.115 138.009 466.288 138.547C466.461 139.085 466.165 139.662 465.627 139.835L456.86 142.656ZM525.836 106.192C525.836 107.215 525.836 107.215 525.836 107.215C525.836 107.215 525.836 107.215 525.836 107.215C525.836 107.215 525.835 107.215 525.834 107.215C525.832 107.215 525.828 107.215 525.824 107.215C525.815 107.215 525.8 107.215 525.781 107.215C525.743 107.215 525.685 107.216 525.608 107.217C525.454 107.218 525.224 107.222 524.925 107.228C524.327 107.241 523.45 107.268 522.342 107.322C520.126 107.429 516.989 107.643 513.315 108.072C505.955 108.932 496.486 110.647 487.941 114.059L487.182 112.158C495.963 108.652 505.632 106.909 513.078 106.04C516.806 105.604 519.99 105.386 522.243 105.277C523.37 105.223 524.265 105.196 524.88 105.182C525.187 105.175 525.425 105.172 525.586 105.17C525.667 105.169 525.728 105.169 525.77 105.168C525.791 105.168 525.808 105.168 525.819 105.168C525.824 105.168 525.828 105.168 525.831 105.168C525.833 105.168 525.834 105.168 525.835 105.168C525.835 105.168 525.836 105.168 525.836 105.168C525.836 105.168 525.836 105.168 525.836 106.192ZM487.941 114.059C477.866 118.082 470.241 125.094 465.121 131.137C462.565 134.154 460.644 136.917 459.363 138.923C458.723 139.926 458.243 140.738 457.925 141.297C457.766 141.577 457.648 141.793 457.57 141.938C457.531 142.01 457.502 142.064 457.483 142.1C457.474 142.118 457.467 142.131 457.462 142.139C457.46 142.143 457.459 142.146 457.458 142.148C457.457 142.149 457.457 142.149 457.457 142.15C457.457 142.15 457.457 142.15 457.457 142.15C457.457 142.15 457.457 142.149 456.547 141.682C455.636 141.215 455.636 141.215 455.636 141.214C455.637 141.214 455.637 141.214 455.637 141.213C455.638 141.212 455.638 141.211 455.639 141.209C455.641 141.206 455.643 141.202 455.646 141.196C455.652 141.185 455.66 141.168 455.671 141.147C455.693 141.105 455.726 141.045 455.768 140.966C455.853 140.808 455.979 140.579 456.146 140.285C456.48 139.699 456.977 138.856 457.638 137.822C458.958 135.753 460.934 132.913 463.56 129.814C468.806 123.622 476.688 116.348 487.182 112.158L487.941 114.059Z" fill="black"/>
<g filter="url(#filter2_d_303_3)">
<rect x="107" y="350" width="724.391" height="113.383" rx="20.9968" fill="#1877F2"/>
<rect width="50.3924" height="50.3924" transform="translate(138.495 381.495)" fill="#1877F2"/>
<path d="M187.838 406.838C187.838 393.503 177.027 382.692 163.691 382.692C150.356 382.692 139.545 393.503 139.545 406.838C139.545 418.891 148.375 428.88 159.919 430.691V413.818H153.788V406.838H159.919V401.519C159.919 395.467 163.523 392.124 169.039 392.124C171.681 392.124 174.444 392.596 174.444 392.596V398.538H171.399C168.4 398.538 167.464 400.399 167.464 402.309V406.838H174.161L173.091 413.818H167.464V430.691C179.008 428.88 187.838 418.891 187.838 406.838Z" fill="white"/>
<path d="M222.269 404.629C222.269 399.353 223.684 395.286 226.514 392.429C228.974 389.941 232.105 388.697 235.905 388.697C240.99 388.697 244.708 390.365 247.06 393.7C248.358 395.573 249.055 397.453 249.151 399.339H242.836C242.426 397.89 241.899 396.797 241.257 396.058C240.108 394.746 238.407 394.09 236.151 394.09C233.855 394.09 232.043 395.019 230.717 396.879C229.391 398.724 228.728 401.342 228.728 404.732C228.728 408.122 229.426 410.665 230.82 412.36C232.228 414.041 234.012 414.882 236.172 414.882C238.386 414.882 240.074 414.157 241.236 412.708C241.879 411.929 242.412 410.76 242.836 409.202H249.09C248.543 412.496 247.142 415.176 244.886 417.24C242.644 419.304 239.767 420.336 236.254 420.336C231.907 420.336 228.489 418.942 226.001 416.153C223.513 413.351 222.269 409.509 222.269 404.629ZM263.484 415.374C265.193 415.374 266.505 414.765 267.421 413.549C268.337 412.332 268.795 410.603 268.795 408.361C268.795 406.119 268.337 404.397 267.421 403.194C266.505 401.977 265.193 401.369 263.484 401.369C261.775 401.369 260.456 401.977 259.526 403.194C258.611 404.397 258.153 406.119 258.153 408.361C258.153 410.603 258.611 412.332 259.526 413.549C260.456 414.765 261.775 415.374 263.484 415.374ZM274.926 408.361C274.926 411.642 273.982 414.451 272.096 416.789C270.209 419.112 267.346 420.274 263.504 420.274C259.663 420.274 256.799 419.112 254.913 416.789C253.026 414.451 252.083 411.642 252.083 408.361C252.083 405.135 253.026 402.34 254.913 399.975C256.799 397.61 259.663 396.427 263.504 396.427C267.346 396.427 270.209 397.61 272.096 399.975C273.982 402.34 274.926 405.135 274.926 408.361ZM291.514 396.612C293.824 396.612 295.71 397.22 297.173 398.437C298.649 399.64 299.388 401.642 299.388 404.445V419.495H293.4V405.901C293.4 404.725 293.243 403.823 292.929 403.194C292.355 402.046 291.261 401.472 289.648 401.472C287.666 401.472 286.306 402.312 285.567 403.994C285.185 404.882 284.993 406.017 284.993 407.397V419.495H279.17V397.186H284.809V400.446C285.561 399.298 286.271 398.471 286.941 397.965C288.144 397.063 289.668 396.612 291.514 396.612ZM302.504 401.513V397.35H305.621V391.117H311.403V397.35H315.033V401.513H311.403V413.323C311.403 414.239 311.52 414.813 311.752 415.046C311.984 415.264 312.695 415.374 313.884 415.374C314.062 415.374 314.247 415.374 314.438 415.374C314.643 415.36 314.841 415.346 315.033 415.333V419.7L312.265 419.803C309.503 419.898 307.617 419.42 306.605 418.367C305.949 417.698 305.621 416.666 305.621 415.271V401.513H302.504ZM324.793 394.479H318.867V389.087H324.793V394.479ZM318.867 397.145H324.793V419.495H318.867V397.145ZM342.858 396.612C345.168 396.612 347.054 397.22 348.517 398.437C349.993 399.64 350.731 401.642 350.731 404.445V419.495H344.744V405.901C344.744 404.725 344.587 403.823 344.272 403.194C343.698 402.046 342.605 401.472 340.992 401.472C339.01 401.472 337.649 402.312 336.911 403.994C336.529 404.882 336.337 406.017 336.337 407.397V419.495H330.514V397.186H336.153V400.446C336.904 399.298 337.615 398.471 338.285 397.965C339.488 397.063 341.012 396.612 342.858 396.612ZM361.968 397.145V410.617C361.968 411.888 362.118 412.845 362.419 413.487C362.952 414.622 363.998 415.189 365.556 415.189C367.552 415.189 368.919 414.383 369.657 412.77C370.04 411.895 370.231 410.74 370.231 409.304V397.145H376.157V419.495H370.478V416.338C370.423 416.406 370.286 416.611 370.067 416.953C369.849 417.294 369.589 417.595 369.288 417.855C368.372 418.675 367.484 419.236 366.623 419.536C365.775 419.837 364.777 419.987 363.629 419.987C360.321 419.987 358.093 418.798 356.944 416.42C356.302 415.107 355.981 413.173 355.981 410.617V397.145H361.968ZM390.634 401.369C389.28 401.369 388.228 401.793 387.476 402.64C386.738 403.488 386.273 404.636 386.082 406.085H395.165C395.07 404.54 394.598 403.372 393.75 402.579C392.917 401.772 391.878 401.369 390.634 401.369ZM390.634 396.55C392.493 396.55 394.167 396.899 395.657 397.596C397.147 398.293 398.378 399.394 399.348 400.897C400.223 402.223 400.79 403.761 401.05 405.511C401.2 406.536 401.262 408.013 401.235 409.94H385.938C386.02 412.182 386.724 413.754 388.05 414.656C388.857 415.217 389.827 415.497 390.962 415.497C392.165 415.497 393.142 415.155 393.894 414.472C394.304 414.102 394.666 413.59 394.981 412.934H400.948C400.797 414.26 400.107 415.606 398.877 416.973C396.963 419.147 394.284 420.233 390.839 420.233C387.995 420.233 385.487 419.318 383.313 417.486C381.14 415.654 380.053 412.674 380.053 408.546C380.053 404.677 381.031 401.711 382.985 399.647C384.954 397.583 387.503 396.55 390.634 396.55ZM427.419 397.145H433.345L436.749 413.241L440.235 397.145H446.325L439.845 419.495H433.837L430.331 403.214L426.783 419.495H420.714L414.44 397.145H420.714L424.2 413.18L427.419 397.145ZM455.572 394.479H449.646V389.087H455.572V394.479ZM449.646 397.145H455.572V419.495H449.646V397.145ZM458.955 401.513V397.35H462.072V391.117H467.854V397.35H471.484V401.513H467.854V413.323C467.854 414.239 467.971 414.813 468.203 415.046C468.435 415.264 469.146 415.374 470.336 415.374C470.513 415.374 470.698 415.374 470.889 415.374C471.094 415.36 471.292 415.346 471.484 415.333V419.7L468.716 419.803C465.954 419.898 464.068 419.42 463.056 418.367C462.4 417.698 462.072 416.666 462.072 415.271V401.513H458.955ZM487.56 396.571C488.94 396.571 490.191 396.81 491.312 397.289C492.446 397.767 493.376 398.498 494.101 399.483C494.716 400.316 495.092 401.178 495.228 402.066C495.365 402.941 495.433 404.376 495.433 406.372V419.495H489.466V405.901C489.466 404.698 489.261 403.727 488.851 402.989C488.318 401.95 487.307 401.431 485.817 401.431C484.272 401.431 483.096 401.95 482.29 402.989C481.497 404.014 481.101 405.484 481.101 407.397V419.495H475.277V389.374H481.101V400.057C481.948 398.758 482.925 397.856 484.033 397.35C485.154 396.831 486.329 396.571 487.56 396.571ZM513.067 389.312H534.495V394.623H519.342V401.574H532.608V406.823H519.342V419.495H513.067V389.312ZM550.591 408.628C550.222 408.86 549.846 409.051 549.463 409.202C549.094 409.339 548.582 409.468 547.925 409.591L546.613 409.838C545.383 410.056 544.501 410.323 543.968 410.637C543.066 411.17 542.615 411.997 542.615 413.118C542.615 414.116 542.888 414.841 543.435 415.292C543.995 415.729 544.672 415.948 545.465 415.948C546.722 415.948 547.878 415.579 548.93 414.841C549.996 414.102 550.55 412.756 550.591 410.801V408.628ZM547.044 405.901C548.124 405.764 548.896 405.593 549.361 405.388C550.195 405.033 550.612 404.479 550.612 403.727C550.612 402.811 550.29 402.182 549.648 401.841C549.019 401.485 548.089 401.308 546.859 401.308C545.479 401.308 544.501 401.649 543.927 402.333C543.517 402.839 543.243 403.522 543.107 404.383H537.468C537.591 402.428 538.138 400.822 539.108 399.565C540.653 397.596 543.305 396.612 547.064 396.612C549.511 396.612 551.685 397.097 553.585 398.068C555.485 399.038 556.435 400.87 556.435 403.563V413.815C556.435 414.526 556.449 415.387 556.476 416.399C556.517 417.165 556.633 417.684 556.824 417.957C557.016 418.231 557.303 418.456 557.686 418.634V419.495H551.329C551.151 419.044 551.028 418.62 550.96 418.224C550.892 417.828 550.837 417.376 550.796 416.871C549.99 417.746 549.06 418.491 548.007 419.106C546.75 419.83 545.328 420.192 543.742 420.192C541.719 420.192 540.045 419.618 538.719 418.47C537.406 417.308 536.75 415.668 536.75 413.549C536.75 410.801 537.81 408.812 539.929 407.582C541.091 406.912 542.799 406.434 545.055 406.147L547.044 405.901ZM574.992 405.162C574.882 404.329 574.602 403.577 574.151 402.907C573.495 402.005 572.476 401.554 571.096 401.554C569.127 401.554 567.781 402.531 567.056 404.486C566.674 405.525 566.482 406.905 566.482 408.628C566.482 410.268 566.674 411.587 567.056 412.585C567.753 414.444 569.066 415.374 570.993 415.374C572.36 415.374 573.331 415.005 573.905 414.267C574.479 413.528 574.828 412.571 574.951 411.396H580.918C580.781 413.173 580.138 414.854 578.99 416.44C577.158 418.996 574.445 420.274 570.85 420.274C567.255 420.274 564.609 419.208 562.914 417.076C561.219 414.943 560.372 412.175 560.372 408.771C560.372 404.93 561.308 401.943 563.181 399.811C565.054 397.678 567.637 396.612 570.932 396.612C573.734 396.612 576.024 397.241 577.801 398.498C579.592 399.756 580.651 401.977 580.979 405.162H574.992ZM593.836 401.369C592.482 401.369 591.43 401.793 590.678 402.64C589.94 403.488 589.475 404.636 589.283 406.085H598.367C598.271 404.54 597.8 403.372 596.952 402.579C596.118 401.772 595.079 401.369 593.836 401.369ZM593.836 396.55C595.695 396.55 597.369 396.899 598.859 397.596C600.349 398.293 601.579 399.394 602.55 400.897C603.425 402.223 603.992 403.761 604.252 405.511C604.402 406.536 604.464 408.013 604.436 409.94H589.14C589.222 412.182 589.926 413.754 591.252 414.656C592.058 415.217 593.029 415.497 594.164 415.497C595.367 415.497 596.344 415.155 597.096 414.472C597.506 414.102 597.868 413.59 598.183 412.934H604.149C603.999 414.26 603.309 415.606 602.078 416.973C600.165 419.147 597.485 420.233 594.041 420.233C591.197 420.233 588.689 419.318 586.515 417.486C584.342 415.654 583.255 412.674 583.255 408.546C583.255 404.677 584.232 401.711 586.187 399.647C588.156 397.583 590.705 396.55 593.836 396.55ZM620.471 396.653C623.41 396.653 625.707 397.712 627.361 399.831C629.028 401.95 629.862 404.684 629.862 408.033C629.862 411.505 629.042 414.383 627.402 416.666C625.761 418.948 623.472 420.09 620.533 420.09C618.687 420.09 617.204 419.721 616.083 418.983C615.413 418.545 614.689 417.78 613.91 416.686V419.495H608.189V389.312H614.012V400.057C614.75 399.018 615.564 398.225 616.452 397.678C617.505 396.995 618.844 396.653 620.471 396.653ZM618.974 415.271C620.478 415.271 621.647 414.663 622.481 413.446C623.314 412.23 623.731 410.63 623.731 408.648C623.731 407.063 623.526 405.75 623.116 404.711C622.337 402.743 620.902 401.759 618.81 401.759C616.691 401.759 615.236 402.722 614.443 404.65C614.033 405.675 613.828 407.001 613.828 408.628C613.828 410.542 614.251 412.127 615.099 413.385C615.946 414.642 617.238 415.271 618.974 415.271ZM644.093 415.374C645.801 415.374 647.114 414.765 648.03 413.549C648.945 412.332 649.403 410.603 649.403 408.361C649.403 406.119 648.945 404.397 648.03 403.194C647.114 401.977 645.801 401.369 644.093 401.369C642.384 401.369 641.065 401.977 640.135 403.194C639.219 404.397 638.761 406.119 638.761 408.361C638.761 410.603 639.219 412.332 640.135 413.549C641.065 414.765 642.384 415.374 644.093 415.374ZM655.534 408.361C655.534 411.642 654.591 414.451 652.705 416.789C650.818 419.112 647.954 420.274 644.113 420.274C640.272 420.274 637.408 419.112 635.522 416.789C633.635 414.451 632.692 411.642 632.692 408.361C632.692 405.135 633.635 402.34 635.522 399.975C637.408 397.61 640.272 396.427 644.113 396.427C647.954 396.427 650.818 397.61 652.705 399.975C654.591 402.34 655.534 405.135 655.534 408.361ZM669.764 415.374C671.473 415.374 672.786 414.765 673.701 413.549C674.617 412.332 675.075 410.603 675.075 408.361C675.075 406.119 674.617 404.397 673.701 403.194C672.786 401.977 671.473 401.369 669.764 401.369C668.056 401.369 666.737 401.977 665.807 403.194C664.891 404.397 664.433 406.119 664.433 408.361C664.433 410.603 664.891 412.332 665.807 413.549C666.737 414.765 668.056 415.374 669.764 415.374ZM681.206 408.361C681.206 411.642 680.263 414.451 678.376 416.789C676.49 419.112 673.626 420.274 669.785 420.274C665.944 420.274 663.08 419.112 661.194 416.789C659.307 414.451 658.364 411.642 658.364 408.361C658.364 405.135 659.307 402.34 661.194 399.975C663.08 397.61 665.944 396.427 669.785 396.427C673.626 396.427 676.49 397.61 678.376 399.975C680.263 402.34 681.206 405.135 681.206 408.361ZM685.348 389.374H691.089V405.655L698.369 397.248H705.607L697.794 405.798L705.914 419.495H698.861L693.509 409.94L691.089 412.462V419.495H685.348V389.374Z" fill="white"/>
</g>
<defs>
<filter id="filter0_d_303_3" x="35.5244" y="159.011" width="867.342" height="256.334" filterUnits="userSpaceOnUse" color-interpolation-filters="sRGB">
<feFlood flood-opacity="0" result="BackgroundImageFix"/>
<feColorMatrix in="SourceAlpha" type="matrix" values="0 0 0 0 0 0 0 0 0 0 0 0 0 0 0 0 0 0 127 0" result="hardAlpha"/>
<feOffset dy="38.4869"/>
<feGaussianBlur stdDeviation="35.7378"/>
<feColorMatrix type="matrix" values="0 0 0 0 0 0 0 0 0 0 0 0 0 0 0 0 0 0 0.07 0"/>
<feBlend mode="normal" in2="BackgroundImageFix" result="effect1_dropShadow_303_3"/>
<feBlend mode="normal" in="SourceGraphic" in2="effect1_dropShadow_303_3" result="shape"/>
</filter>
<filter id="filter1_d_303_3" x="34.8581" y="476.148" width="867.342" height="256.334" filterUnits="userSpaceOnUse" color-interpolation-filters="sRGB">
<feFlood flood-opacity="0" result="BackgroundImageFix"/>
<feColorMatrix in="SourceAlpha" type="matrix" values="0 0 0 0 0 0 0 0 0 0 0 0 0 0 0 0 0 0 127 0" result="hardAlpha"/>
<feOffset dy="38.4869"/>
<feGaussianBlur stdDeviation="35.7378"/>
<feColorMatrix type="matrix" values="0 0 0 0 0 0 0 0 0 0 0 0 0 0 0 0 0 0 0.07 0"/>
<feBlend mode="normal" in2="BackgroundImageFix" result="effect1_dropShadow_303_3"/>
<feBlend mode="normal" in="SourceGraphic" in2="effect1_dropShadow_303_3" result="shape"/>
</filter>
<filter id="filter2_d_303_3" x="35.5244" y="317.011" width="867.342" height="256.334" filterUnits="userSpaceOnUse" color-interpolation-filters="sRGB">
<feFlood flood-opacity="0" result="BackgroundImageFix"/>
<feColorMatrix in="SourceAlpha" type="matrix" values="0 0 0 0 0 0 0 0 0 0 0 0 0 0 0 0 0 0 127 0" result="hardAlpha"/>
<feOffset dy="38.4869"/>
<feGaussianBlur stdDeviation="35.7378"/>
<feColorMatrix type="matrix" values="0 0 0 0 0 0 0 0 0 0 0 0 0 0 0 0 0 0 0.07 0"/>
<feBlend mode="normal" in2="BackgroundImageFix" result="effect1_dropShadow_303_3"/>
<feBlend mode="normal" in="SourceGraphic" in2="effect1_dropShadow_303_3" result="shape"/>
</filter>
</defs>
</svg>
